# xmcd
#
# Track frame offsets:
#	150
#	21530
#	45887
#	70478
#	92827
#	125490
#	146094
#	169559
#	207276
#
# Disc length: 3023 seconds
#
# Revision: 0
# Processed by: cddbd v1.4PL0 Copyright (c) Steve Scherf et al.
# Submitted via: EasyCDDAExtractor 4.6.0.1
#
DISCID=7f0bcd09
DTITLE=Anthony Wild - Knockin' on My Back Door
DYEAR=2002
DGENRE=Blues
TTITLE0=Knockin' on my back door
TTITLE1=Whiskey in the mornin'
TTITLE2=Killin' Floor
TTITLE3=Wednesday Woman
TTITLE4=Bang Bang
TTITLE5=Made a Mistake
TTITLE6=She's Lookin' Good
TTITLE7=Goin' down the Drain
TTITLE8=Hump n' Grind
EXTD=
EXTT0=
EXTT1=
EXTT2=
EXTT3=
EXTT4=
EXTT5=
EXTT6=
EXTT7=
EXTT8=
PLAYORDER=
